<svg xmlns="http://www.w3.org/2000/svg" viewBox="0 0 512 512">
  <defs>
    <linearGradient id="g" x1="0" y1="0" x2="512" y2="512" gradientUnits="userSpaceOnUse">
      <stop offset="0" stop-color="#2fb389"/>
      <stop offset="1" stop-color="#156a55"/>
    </linearGradient>
  </defs>
  <rect width="512" height="512" rx="120" fill="url(#g)"/>
  <path d="M256 150 C236 128 204 116 180 116 C128 116 92 152 92 208 C92 252 108 286 118 330 C124 358 132 400 156 400 C180 400 176 322 256 322 C336 322 332 400 356 400 C380 400 388 358 394 330 C404 286 420 252 420 208 C420 152 384 116 332 116 C308 116 276 128 256 150 Z" fill="#fff"/>
  <path d="M60 232 H172 L206 168 L258 300 L298 210 L318 232 H452" fill="none" stroke="url(#g)" stroke-width="30" stroke-linecap="round" stroke-linejoin="round"/>
</svg>
